<?xml version="1.0" encoding="UTF-8"?>
<svg xmlns="http://www.w3.org/2000/svg" width="440" height="260" viewBox="0 0 440 260">
  
    <style>
      .pixel { shape-rendering: crispEdges; }
      .label {
        font-family: "Noto Sans SC", "Microsoft YaHei", sans-serif;
        font-weight: 900;
        paint-order: stroke fill;
        stroke-linejoin: round;
      }
      .small {
        font-family: "Noto Sans SC", "Microsoft YaHei", sans-serif;
        font-weight: 800;
      }
      
    </style>
  
        <path d="M54 28 H386 V222 H54 C74 202 74 178 54 158 C74 138 74 112 54 92 C74 72 74 48 54 28Z" fill="#fff6d8" stroke="#2e2a27" stroke-width="6" stroke-linejoin="round"/>
        <path d="M78 52 H362 V199 H78Z" fill="none" stroke="#ef7762" stroke-width="4" stroke-dasharray="12 8" opacity="0.7"/>
        
    <g transform="translate(103 198) scale(0.45 0.45)">
      <path d="M0 0 C-20 -22 -42 -24 -50 -5 C-31 -4 -17 5 0 0Z" fill="#6f8d4f" stroke="#2e2a27" stroke-width="3"/>
      <path d="M-6 18 C-28 3 -49 7 -52 28 C-33 23 -17 28 -6 18Z" fill="#49643a" stroke="#2e2a27" stroke-width="3"/>
      <path d="M0 0 C-9 9 -19 17 -34 23" fill="none" stroke="#fff6d8" stroke-width="2" opacity="0.35"/>
    </g>
        
    <g transform="translate(344 72) scale(-0.45 0.45)">
      <path d="M0 0 C-20 -22 -42 -24 -50 -5 C-31 -4 -17 5 0 0Z" fill="#6f8d4f" stroke="#2e2a27" stroke-width="3"/>
      <path d="M-6 18 C-28 3 -49 7 -52 28 C-33 23 -17 28 -6 18Z" fill="#49643a" stroke="#2e2a27" stroke-width="3"/>
      <path d="M0 0 C-9 9 -19 17 -34 23" fill="none" stroke="#fff6d8" stroke-width="2" opacity="0.35"/>
    </g>
        
    <text x="220" y="100" text-anchor="middle" font-family="Noto Sans SC, Microsoft YaHei, sans-serif" font-size="39" font-weight="900" letter-spacing="0" fill="#5b331e" opacity="0.35" transform="translate(7 7)">本店只剩锅</text>
    <text x="220" y="100" text-anchor="middle" font-family="Noto Sans SC, Microsoft YaHei, sans-serif" font-size="39" font-weight="900" letter-spacing="0" fill="#ef7762" opacity="0.72" transform="translate(3 4)" stroke="#fffdf2" stroke-width="2" paint-order="stroke fill" stroke-linejoin="round">本店只剩锅</text>
    <text x="220" y="100" text-anchor="middle" font-family="Noto Sans SC, Microsoft YaHei, sans-serif" font-size="39" font-weight="900" letter-spacing="0" fill="#5b331e" stroke="#fffdf2" stroke-width="5" paint-order="stroke fill" stroke-linejoin="round">本店只剩锅</text>
        <text x="220" y="148" text-anchor="middle" class="small" font-size="24" fill="#5b331e">食材靠想象</text>
        <text x="220" y="180" text-anchor="middle" class="small" font-size="19" fill="#7a4427">情绪需求 · AI 料理 · 像素上菜</text>
      
</svg>
